<svg width="119" height="119" viewBox="0 0 119 119" fill="none" xmlns="http://www.w3.org/2000/svg">
<path d="M0 17.6548C0 7.90432 7.90432 0 17.6548 0H101.345C111.096 0 119 7.90432 119 17.6548V101.345C119 111.096 111.096 119 101.345 119H17.6548C7.90432 119 0 111.096 0 101.345V17.6548Z" fill="#30374F"/>
<path d="M56.5109 57.0946C56.1667 57.4177 55.8393 57.7601 55.5311 58.1216C55.7934 57.7429 56.1239 57.4009 56.5109 57.0946C61.1769 52.7148 68.9414 51.8691 73.8773 54.8841C79.1772 58.1216 84.7235 62.8004 83.9081 67.6566C83.0927 72.5129 79.4235 80.784 71.2697 84.2488C65.4513 86.7211 58.2235 88.4731 47.785 85.2356C36.635 81.7774 30.6621 74.7137 28.8699 64.8238C27.2755 56.0252 26.8687 46.3043 36.7317 37.7801C51.6924 24.8502 74.5312 22.9139 91 35.4592C82.0308 32.2217 78.3617 31.4123 68.9848 31.4123C59.7869 31.4123 58.2235 32.6263 49.662 36.0911C40.531 39.7863 27.755 48.2317 35.3929 68.8707C42.7314 88.7003 68.1696 82.8074 74.5312 77.3691C79.3772 73.2264 80.6834 65.6294 73.8773 58.1216C70.6772 54.5916 60.5356 53.9098 56.5109 57.0946Z" fill="white"/>
</svg>
