<svg width="175" height="44" viewBox="0 0 175 44" fill="none" xmlns="http://www.w3.org/2000/svg">
<path d="M166.144 34.55C164.567 34.55 163.155 34.1833 161.909 33.45C160.662 32.7167 159.69 31.7083 158.994 30.425C158.297 29.105 157.949 27.6383 157.949 26.025C157.949 24.4483 158.297 23.0367 158.994 21.79C159.69 20.5433 160.662 19.5717 161.909 18.875C163.155 18.1417 164.567 17.775 166.144 17.775C167.17 17.775 168.087 17.94 168.894 18.27C169.7 18.6 170.397 19.0583 170.984 19.645V11.945C170.984 11.3217 171.167 10.8633 171.534 10.57C171.937 10.24 172.377 10.075 172.854 10.075C173.33 10.075 173.752 10.24 174.119 10.57C174.522 10.8633 174.724 11.3217 174.724 11.945V32.845C174.724 33.395 174.522 33.8167 174.119 34.11C173.752 34.4033 173.33 34.55 172.854 34.55C172.377 34.55 171.937 34.4033 171.534 34.11C171.167 33.8167 170.984 33.395 170.984 32.845V32.625C170.397 33.2117 169.7 33.67 168.894 34C168.087 34.3667 167.17 34.55 166.144 34.55ZM166.474 31.14C167.867 31.14 168.967 30.6817 169.774 29.765C170.58 28.8117 170.984 27.565 170.984 26.025C170.984 24.5583 170.58 23.385 169.774 22.505C168.967 21.625 167.867 21.185 166.474 21.185C165.044 21.185 163.889 21.625 163.009 22.505C162.129 23.385 161.689 24.5583 161.689 26.025C161.689 27.565 162.129 28.8117 163.009 29.765C163.889 30.6817 165.044 31.14 166.474 31.14Z" fill="#30374F"/>
<path d="M153.034 34.55C152.558 34.55 152.118 34.4033 151.714 34.11C151.348 33.8167 151.164 33.395 151.164 32.845V25.915C151.164 24.3017 150.798 23.11 150.064 22.34C149.368 21.57 148.433 21.185 147.259 21.185C145.756 21.185 144.656 21.68 143.959 22.67C143.299 23.6233 142.969 24.6867 142.969 25.86V32.845C142.969 33.395 142.768 33.8167 142.364 34.11C141.998 34.4033 141.576 34.55 141.099 34.55C140.623 34.55 140.183 34.4033 139.779 34.11C139.413 33.8167 139.229 33.395 139.229 32.845V19.92C139.229 19.2967 139.413 18.8383 139.779 18.545C140.183 18.215 140.623 18.05 141.099 18.05C141.576 18.05 141.998 18.215 142.364 18.545C142.768 18.8383 142.969 19.2967 142.969 19.92C143.593 19.2967 144.399 18.7833 145.389 18.38C146.379 17.9767 147.314 17.775 148.194 17.775C150.248 17.775 151.879 18.435 153.089 19.755C154.299 21.075 154.904 23.0183 154.904 25.585V32.845C154.904 33.395 154.703 33.8167 154.299 34.11C153.896 34.4033 153.474 34.55 153.034 34.55Z" fill="#30374F"/>
<path d="M132.883 34.55C132.406 34.55 131.966 34.4033 131.563 34.11C131.196 33.8167 131.013 33.395 131.013 32.845V19.645C131.013 19.0217 131.196 18.5633 131.563 18.27C131.966 17.94 132.406 17.775 132.883 17.775C133.36 17.775 133.781 17.94 134.148 18.27C134.551 18.5633 134.753 19.0217 134.753 19.645V32.845C134.753 33.395 134.551 33.8167 134.148 34.11C133.781 34.4033 133.36 34.55 132.883 34.55ZM132.938 14.75C132.241 14.75 131.636 14.53 131.123 14.09C130.646 13.6133 130.408 13.045 130.408 12.385C130.408 11.7617 130.646 11.23 131.123 10.79C131.636 10.3133 132.241 10.075 132.938 10.075C133.598 10.075 134.166 10.3133 134.643 10.79C135.12 11.23 135.358 11.7617 135.358 12.385C135.358 13.045 135.12 13.6133 134.643 14.09C134.166 14.53 133.598 14.75 132.938 14.75Z" fill="#30374F"/>
<path d="M107.884 34.55C107.224 34.55 106.637 34.3483 106.124 33.945C105.647 33.505 105.335 32.955 105.189 32.295L101.559 13.65C101.522 13.0267 101.705 12.55 102.109 12.22C102.512 11.89 102.97 11.725 103.484 11.725C103.887 11.725 104.272 11.8533 104.639 12.11C105.042 12.3667 105.28 12.77 105.354 13.32L107.939 28.115C108.012 28.5183 108.159 28.72 108.379 28.72C108.562 28.72 108.709 28.5367 108.819 28.17L112.119 15.74C112.302 15.1533 112.632 14.7317 113.109 14.475C113.585 14.1817 114.044 14.035 114.484 14.035C114.924 14.035 115.382 14.1817 115.859 14.475C116.372 14.7317 116.702 15.1533 116.849 15.74L120.149 28.17C120.259 28.5367 120.405 28.72 120.589 28.72C120.809 28.72 120.955 28.5183 121.029 28.115L123.614 13.32C123.724 12.77 123.962 12.3667 124.329 12.11C124.695 11.8533 125.08 11.725 125.484 11.725C125.997 11.725 126.455 11.89 126.859 12.22C127.299 12.55 127.482 13.0267 127.409 13.65L123.724 32.295C123.577 32.955 123.247 33.505 122.734 33.945C122.257 34.3483 121.689 34.55 121.029 34.55C119.709 34.55 118.774 33.835 118.224 32.405L114.979 20.745C114.869 20.3417 114.704 20.14 114.484 20.14C114.264 20.14 114.099 20.3417 113.989 20.745L110.689 32.405C110.139 33.835 109.204 34.55 107.884 34.55Z" fill="#30374F"/>
<path d="M91.3857 34.55C89.7724 34.55 88.3057 34.1833 86.9857 33.45C85.7024 32.7167 84.6941 31.7083 83.9607 30.425C83.2274 29.105 82.8607 27.6383 82.8607 26.025C82.8607 24.4483 83.2274 23.0367 83.9607 21.79C84.6941 20.5433 85.7024 19.5717 86.9857 18.875C88.3057 18.1417 89.7724 17.775 91.3857 17.775C92.9991 17.775 94.4474 18.1417 95.7307 18.875C97.0141 19.5717 98.0224 20.5433 98.7557 21.79C99.5257 23.0367 99.9107 24.4483 99.9107 26.025C99.9107 27.6383 99.5257 29.105 98.7557 30.425C98.0224 31.7083 97.0141 32.7167 95.7307 33.45C94.4474 34.1833 92.9991 34.55 91.3857 34.55ZM91.3857 31.14C92.8157 31.14 93.9707 30.6817 94.8507 29.765C95.7307 28.8117 96.1707 27.565 96.1707 26.025C96.1707 24.5583 95.7307 23.385 94.8507 22.505C93.9707 21.625 92.8157 21.185 91.3857 21.185C89.9191 21.185 88.7457 21.625 87.8657 22.505C87.0224 23.385 86.6007 24.5583 86.6007 26.025C86.6007 27.565 87.0224 28.8117 87.8657 29.765C88.7457 30.6817 89.9191 31.14 91.3857 31.14Z" fill="#30374F"/>
<path d="M69.65 34.55C67.56 34.55 65.6533 34.055 63.93 33.065C62.2433 32.0383 60.8867 30.6633 59.86 28.94C58.87 27.18 58.375 25.2 58.375 23C58.375 20.69 58.87 18.6733 59.86 16.95C60.8867 15.19 62.2617 13.8333 63.985 12.88C65.745 11.9267 67.7067 11.45 69.87 11.45C71.3733 11.45 72.7667 11.6517 74.05 12.055C75.3333 12.4217 76.5433 13.0267 77.68 13.87C78.12 14.2367 78.34 14.7317 78.34 15.355C78.34 15.8317 78.175 16.2533 77.845 16.62C77.5517 16.95 77.1483 17.115 76.635 17.115C76.305 17.115 75.9383 16.9867 75.535 16.73C74.655 16.07 73.7383 15.5933 72.785 15.3C71.8317 15.0067 70.8783 14.86 69.925 14.86C67.6883 14.86 65.8367 15.6117 64.37 17.115C62.94 18.5817 62.225 20.5433 62.225 23C62.225 25.3833 62.9033 27.345 64.26 28.885C65.6533 30.3883 67.45 31.14 69.65 31.14C70.97 31.14 72.125 30.9017 73.115 30.425C74.1417 29.9483 74.9483 29.3433 75.535 28.61C76.1583 27.84 76.5067 27.0883 76.58 26.355C76.58 25.7683 76.2867 25.475 75.7 25.475H71.795C70.585 25.475 69.98 24.9067 69.98 23.77C69.98 23.2567 70.145 22.8533 70.475 22.56C70.805 22.2667 71.245 22.12 71.795 22.12H78.065C78.8717 22.12 79.4583 22.3033 79.825 22.67C80.1917 23 80.375 23.66 80.375 24.65C80.375 26.4467 79.9167 28.0967 79 29.6C78.12 31.1033 76.8733 32.3133 75.26 33.23C73.6467 34.11 71.7767 34.55 69.65 34.55Z" fill="#30374F"/>
<path d="M20.8175 22.0694C20.5661 22.3063 20.3271 22.5574 20.1021 22.8225C20.2936 22.5448 20.5349 22.294 20.8175 22.0694C24.2244 18.8576 29.8938 18.2373 33.4977 20.4483C37.3675 22.8225 41.4171 26.2536 40.8218 29.8149C40.2264 33.3761 37.5473 39.4416 31.5937 41.9824C27.3454 43.7955 22.068 45.0803 14.4462 42.7061C6.30491 40.1701 1.94373 34.99 0.635149 27.7375C-0.529035 21.2852 -0.826017 14.1565 6.37554 7.90542C17.2992 -1.57651 33.9752 -2.99647 46 6.20339C39.4511 3.82923 36.772 3.23569 29.9254 3.23569C23.2095 3.23569 22.068 4.12599 15.8167 6.66681C9.14962 9.37665 -0.178911 15.5699 5.39802 30.7052C10.7562 45.2469 29.3302 40.9255 33.9752 36.9373C37.5135 33.8994 38.4672 28.3282 33.4977 22.8225C31.1611 20.2338 23.7561 19.7338 20.8175 22.0694Z" fill="#5D6B98"/>
</svg>
